<svg width="833" height="180" viewBox="0 0 833 180" fill="none" xmlns="http://www.w3.org/2000/svg">
<path d="M57.7 80.26C51.94 80.26 46.48 79.78 41.32 78.82C36.22 77.8 32.29 76.66 29.53 75.4V57.58H49.33C49.33 59.44 49.75 60.79 50.59 61.63C51.43 62.47 52.96 62.89 55.18 62.89C57.04 62.89 58.36 62.62 59.14 62.08C59.98 61.48 60.4 60.61 60.4 59.47C60.4 58.51 60.01 57.7 59.23 57.04C58.45 56.32 57.1 55.6 55.18 54.88L47.44 52.18C40.78 49.66 35.98 46.69 33.04 43.27C30.16 39.85 28.72 35.23 28.72 29.41C28.72 22.33 31.03 16.96 35.65 13.3C40.33 9.58 48.1 7.72 58.96 7.72C64.18 7.72 69.07 8.26 73.63 9.34C78.25 10.36 81.97 11.74 84.79 13.48V29.59H66.79C66.79 26.59 64.93 25.09 61.21 25.09C59.41 25.09 58.12 25.33 57.34 25.81C56.62 26.23 56.26 27.01 56.26 28.15C56.26 29.17 56.68 29.98 57.52 30.58C58.42 31.18 59.86 31.81 61.84 32.47L69.67 35.17C76.03 37.33 80.65 40.15 83.53 43.63C86.47 47.05 87.94 51.55 87.94 57.13C87.94 64.75 85.36 70.51 80.2 74.41C75.1 78.31 67.6 80.26 57.7 80.26ZM112.495 80.26C106.135 80.26 101.335 78.73 98.0945 75.67C94.9145 72.55 93.3245 67.33 93.3245 60.01V43.72H89.3645V28.96C91.6445 28.96 93.3545 28.39 94.4945 27.25C95.6345 26.05 96.2045 24.43 96.2045 22.39V18.34H115.285V28.96H127.435V43.72H115.285V58.48C115.285 60.46 115.705 61.93 116.545 62.89C117.445 63.79 118.765 64.24 120.505 64.24C122.785 64.24 125.275 63.97 127.975 63.43V77.56C126.295 78.22 124.015 78.82 121.135 79.36C118.315 79.96 115.435 80.26 112.495 80.26ZM169.3 27.7C170.5 27.7 171.64 27.82 172.72 28.06C173.8 28.3 174.7 28.6 175.42 28.96V46.15C172.96 45.13 170.32 44.62 167.5 44.62C163.72 44.62 160.81 45.61 158.77 47.59C156.73 49.57 155.71 52.51 155.71 56.41V64.24H163.81V79H131.05V64.24H135.01V43.72H131.05V28.96H155.71V35.53C157.39 33.01 159.31 31.09 161.47 29.77C163.63 28.39 166.24 27.7 169.3 27.7ZM230.801 64.24V79H207.041V72.88C205.721 74.8 203.861 76.51 201.461 78.01C199.121 79.51 196.241 80.26 192.821 80.26C188.321 80.26 184.781 79.06 182.201 76.66C179.621 74.26 178.331 70.87 178.331 66.49C178.331 55.15 187.961 49.33 207.221 49.03C207.041 46.99 206.261 45.61 204.881 44.89C203.501 44.11 201.161 43.72 197.861 43.72C195.161 43.72 192.251 44.02 189.131 44.62C186.071 45.16 183.251 45.91 180.671 46.87V30.31C183.851 29.53 187.301 28.9 191.021 28.42C194.741 27.94 198.371 27.7 201.911 27.7C210.851 27.7 217.241 29.32 221.081 32.56C224.921 35.8 226.841 40.81 226.841 47.59V64.24H230.801ZM207.041 57.94C204.341 57.94 202.241 58.3 200.741 59.02C199.301 59.74 198.581 60.94 198.581 62.62C198.581 63.64 198.881 64.48 199.481 65.14C200.141 65.74 201.041 66.04 202.181 66.04C203.741 66.04 204.941 65.38 205.781 64.06C206.621 62.74 207.041 60.88 207.041 58.48V57.94ZM255.932 80.26C249.572 80.26 244.772 78.73 241.532 75.67C238.352 72.55 236.762 67.33 236.762 60.01V43.72H232.802V28.96C235.082 28.96 236.792 28.39 237.932 27.25C239.072 26.05 239.642 24.43 239.642 22.39V18.34H258.722V28.96H270.872V43.72H258.722V58.48C258.722 60.46 259.142 61.93 259.982 62.89C260.882 63.79 262.202 64.24 263.942 64.24C266.222 64.24 268.712 63.97 271.412 63.43V77.56C269.732 78.22 267.452 78.82 264.572 79.36C261.752 79.96 258.872 80.26 255.932 80.26ZM301.128 80.26C292.608 80.26 285.948 78.04 281.148 73.6C276.348 69.1 273.948 62.56 273.948 53.98C273.948 45.4 276.348 38.89 281.148 34.45C285.948 29.95 292.608 27.7 301.128 27.7C309.588 27.7 315.678 29.92 319.398 34.36C323.178 38.74 325.068 44.2 325.068 50.74V57.22H295.908V57.76C295.908 59.98 296.568 61.63 297.888 62.71C299.208 63.73 301.398 64.24 304.458 64.24C308.118 64.24 311.598 63.97 314.898 63.43C318.198 62.89 321.078 62.2 323.537 61.36V75.76C321.438 76.9 318.348 77.95 314.268 78.91C310.248 79.81 305.868 80.26 301.128 80.26ZM306.348 47.32V46.24C306.348 44.2 305.898 42.73 304.998 41.83C304.158 40.93 302.868 40.48 301.128 40.48C299.388 40.48 298.068 40.96 297.168 41.92C296.328 42.82 295.908 44.26 295.908 46.24V47.32H306.348ZM293.298 23.56V22.21L303.108 8.53H322.368V10.96L307.698 23.56H293.298ZM354.115 100.24C349.795 100.24 345.655 99.94 341.695 99.34C337.795 98.74 334.765 98.05 332.605 97.27V82.51C338.965 83.65 344.665 84.22 349.705 84.22C353.125 84.22 355.585 83.68 357.085 82.6C358.645 81.58 359.425 79.63 359.425 76.75V72.88C357.925 74.8 355.975 76.51 353.575 78.01C351.235 79.51 348.535 80.26 345.475 80.26C339.355 80.26 334.735 77.98 331.615 73.42C328.555 68.86 327.025 62.38 327.025 53.98C327.025 45.58 328.555 39.1 331.615 34.54C334.735 29.98 339.355 27.7 345.475 27.7C348.535 27.7 351.235 28.45 353.575 29.95C355.975 31.45 357.925 33.16 359.425 35.08V28.96H384.085V43.72H380.125V75.4C380.125 84.1 377.965 90.4 373.645 94.3C369.325 98.26 362.815 100.24 354.115 100.24ZM354.205 64.24C355.945 64.24 357.235 63.79 358.075 62.89C358.975 61.93 359.425 60.46 359.425 58.48V49.48C359.425 47.5 358.975 46.06 358.075 45.16C357.235 44.2 355.945 43.72 354.205 43.72C352.465 43.72 351.145 44.2 350.245 45.16C349.405 46.06 348.985 47.5 348.985 49.48V58.48C348.985 60.46 349.405 61.93 350.245 62.89C351.145 63.79 352.465 64.24 354.205 64.24ZM390.952 24.01V8.97999H409.312V24.01H390.952ZM386.632 79V64.24H390.592V43.72H386.632V28.96H411.292V64.24H415.252V79H386.632ZM444.565 80.26C436.045 80.26 429.385 78.04 424.585 73.6C419.785 69.1 417.385 62.56 417.385 53.98C417.385 45.4 419.785 38.89 424.585 34.45C429.385 29.95 436.045 27.7 444.565 27.7C453.025 27.7 459.115 29.92 462.835 34.36C466.615 38.74 468.505 44.2 468.505 50.74V57.22H439.345V57.76C439.345 59.98 440.005 61.63 441.325 62.71C442.645 63.73 444.835 64.24 447.895 64.24C451.555 64.24 455.035 63.97 458.335 63.43C461.635 62.89 464.515 62.2 466.975 61.36V75.76C464.875 76.9 461.785 77.95 457.705 78.91C453.685 79.81 449.305 80.26 444.565 80.26ZM449.785 47.32V46.24C449.785 44.2 449.335 42.73 448.435 41.83C447.595 40.93 446.305 40.48 444.565 40.48C442.825 40.48 441.505 40.96 440.605 41.92C439.765 42.82 439.345 44.26 439.345 46.24V47.32H449.785Z" fill="#0071BC"/>
<path d="M543.5 80.26C533.84 80.26 526.4 78.49 521.18 74.95C516.02 71.35 513.44 66.4 513.44 60.1C513.44 55.9 514.7 52.27 517.22 49.21C519.74 46.09 522.89 43.75 526.67 42.19C523.31 39.79 520.79 37.33 519.11 34.81C517.43 32.29 516.59 29.35 516.59 25.99C516.59 22.15 517.82 18.85 520.28 16.09C522.74 13.33 526.13 11.26 530.45 9.88C534.83 8.44 539.81 7.72 545.39 7.72C551.03 7.72 556.19 8.41 560.87 9.79C565.55 11.17 569.03 12.7 571.31 14.38V31.66H552.41V30.04C552.41 27.88 551.9 26.29 550.88 25.27C549.86 24.25 548.33 23.74 546.29 23.74C542.51 23.74 540.62 25.21 540.62 28.15C540.62 29.29 541.07 30.37 541.97 31.39C542.93 32.41 544.43 33.7 546.47 35.26L561.14 46.33C561.38 45.07 561.5 43.63 561.5 42.01V40.39H583.19V55.42H577.97L577.16 58.39L585.26 64.51L574.28 79L567.71 73.96C561.71 78.16 553.64 80.26 543.5 80.26ZM545.84 64.24C548.78 64.24 551.18 63.7 553.04 62.62L541.61 53.8C540.47 54.34 539.57 55.09 538.91 56.05C538.25 56.95 537.92 57.97 537.92 59.11C537.92 60.91 538.58 62.23 539.9 63.07C541.28 63.85 543.26 64.24 545.84 64.24Z" fill="#FF3333"/>
<path d="M314.07 101.74H309.57V142.24H314.07V157H280.05V142.24H284.37V110.74L269.07 157H255.75L240 111.19V142.24H244.32V157H214.8V142.24H219.3V101.74H214.8V86.98H256.02L265.38 115.06L274.38 86.98H314.07V101.74ZM369.922 142.24V157H346.162V150.88C344.842 152.8 342.982 154.51 340.582 156.01C338.242 157.51 335.362 158.26 331.942 158.26C327.442 158.26 323.902 157.06 321.322 154.66C318.742 152.26 317.452 148.87 317.452 144.49C317.452 133.15 327.082 127.33 346.342 127.03C346.162 124.99 345.382 123.61 344.002 122.89C342.622 122.11 340.282 121.72 336.982 121.72C334.282 121.72 331.372 122.02 328.252 122.62C325.192 123.16 322.372 123.91 319.792 124.87V108.31C322.972 107.53 326.422 106.9 330.142 106.42C333.862 105.94 337.492 105.7 341.032 105.7C349.972 105.7 356.362 107.32 360.202 110.56C364.042 113.8 365.962 118.81 365.962 125.59V142.24H369.922ZM346.162 135.94C343.462 135.94 341.362 136.3 339.862 137.02C338.422 137.74 337.702 138.94 337.702 140.62C337.702 141.64 338.002 142.48 338.602 143.14C339.262 143.74 340.162 144.04 341.302 144.04C342.862 144.04 344.062 143.38 344.902 142.06C345.742 140.74 346.162 138.88 346.162 136.48V135.94ZM411.253 105.7C412.453 105.7 413.593 105.82 414.673 106.06C415.753 106.3 416.653 106.6 417.373 106.96V124.15C414.913 123.13 412.273 122.62 409.453 122.62C405.673 122.62 402.763 123.61 400.723 125.59C398.683 127.57 397.663 130.51 397.663 134.41V142.24H405.763V157H373.003V142.24H376.963V121.72H373.003V106.96H397.663V113.53C399.343 111.01 401.263 109.09 403.423 107.77C405.583 106.39 408.193 105.7 411.253 105.7ZM474.554 142.24H478.424V157H456.374L447.104 139.72H444.944V157H420.284V142.24H424.244V101.74H420.284V86.98H444.944V123.52H447.104L458.264 106.96H477.254V121.72H473.564L465.914 130.27L474.554 142.24ZM508.1 158.26C499.58 158.26 492.92 156.04 488.12 151.6C483.32 147.1 480.92 140.56 480.92 131.98C480.92 123.4 483.32 116.89 488.12 112.45C492.92 107.95 499.58 105.7 508.1 105.7C516.56 105.7 522.65 107.92 526.37 112.36C530.15 116.74 532.04 122.2 532.04 128.74V135.22H502.88V135.76C502.88 137.98 503.54 139.63 504.86 140.71C506.18 141.73 508.37 142.24 511.43 142.24C515.09 142.24 518.57 141.97 521.87 141.43C525.17 140.89 528.05 140.2 530.51 139.36V153.76C528.41 154.9 525.32 155.95 521.24 156.91C517.22 157.81 512.84 158.26 508.1 158.26ZM513.32 125.32V124.24C513.32 122.2 512.87 120.73 511.97 119.83C511.13 118.93 509.84 118.48 508.1 118.48C506.36 118.48 505.04 118.96 504.14 119.92C503.3 120.82 502.88 122.26 502.88 124.24V125.32H513.32ZM556.948 158.26C550.588 158.26 545.788 156.73 542.548 153.67C539.368 150.55 537.778 145.33 537.778 138.01V121.72H533.818V106.96C536.098 106.96 537.808 106.39 538.948 105.25C540.088 104.05 540.658 102.43 540.658 100.39V96.34H559.738V106.96H571.888V121.72H559.738V136.48C559.738 138.46 560.158 139.93 560.998 140.89C561.898 141.79 563.218 142.24 564.958 142.24C567.238 142.24 569.728 141.97 572.428 141.43V155.56C570.748 156.22 568.468 156.82 565.588 157.36C562.768 157.96 559.888 158.26 556.948 158.26ZM579.643 102.01V86.98H598.003V102.01H579.643ZM575.323 157V142.24H579.283V121.72H575.323V106.96H599.983V142.24H603.943V157H575.323ZM666.196 142.24V157H637.756V142.24H641.536V127.48C641.536 125.5 641.116 124.06 640.276 123.16C639.436 122.2 638.176 121.72 636.496 121.72C632.896 121.72 631.096 123.64 631.096 127.48V142.24H634.876V157H606.436V142.24H610.396V121.72H606.436V106.96H631.096V113.98C635.416 108.46 640.816 105.7 647.296 105.7C652.276 105.7 655.996 107.26 658.456 110.38C660.976 113.5 662.236 117.79 662.236 123.25V142.24H666.196ZM695.472 178.24C691.152 178.24 687.012 177.94 683.052 177.34C679.152 176.74 676.122 176.05 673.962 175.27V160.51C680.322 161.65 686.022 162.22 691.062 162.22C694.482 162.22 696.942 161.68 698.442 160.6C700.002 159.58 700.782 157.63 700.782 154.75V150.88C699.282 152.8 697.332 154.51 694.932 156.01C692.592 157.51 689.892 158.26 686.832 158.26C680.712 158.26 676.092 155.98 672.972 151.42C669.912 146.86 668.382 140.38 668.382 131.98C668.382 123.58 669.912 117.1 672.972 112.54C676.092 107.98 680.712 105.7 686.832 105.7C689.892 105.7 692.592 106.45 694.932 107.95C697.332 109.45 699.282 111.16 700.782 113.08V106.96H725.442V121.72H721.482V153.4C721.482 162.1 719.322 168.4 715.002 172.3C710.682 176.26 704.172 178.24 695.472 178.24ZM695.562 142.24C697.302 142.24 698.592 141.79 699.432 140.89C700.332 139.93 700.782 138.46 700.782 136.48V127.48C700.782 125.5 700.332 124.06 699.432 123.16C698.592 122.2 697.302 121.72 695.562 121.72C693.822 121.72 692.502 122.2 691.602 123.16C690.762 124.06 690.342 125.5 690.342 127.48V136.48C690.342 138.46 690.762 139.93 691.602 140.89C692.502 141.79 693.822 142.24 695.562 142.24Z" fill="#49951A"/>
</svg>
