<svg width="69" height="55" viewBox="0 0 69 55" fill="none" xmlns="http://www.w3.org/2000/svg">
<path opacity="0.39" d="M21.327 36C33.1056 36 42.654 27.9411 42.654 18C42.654 8.05887 33.1056 0 21.327 0C9.54843 0 0 8.05887 0 18C0 27.9411 9.54843 36 21.327 36Z" fill="#49951A"/>
<path opacity="0.39" d="M47.3934 36C59.172 36 68.7204 27.9411 68.7204 18C68.7204 8.05887 59.172 0 47.3934 0C35.6148 0 26.0664 8.05887 26.0664 18C26.0664 27.9411 35.6148 36 47.3934 36Z" fill="#0BA6FE"/>
<path opacity="0.29" d="M34.9526 55C47.0584 55 56.8721 46.9411 56.8721 37C56.8721 27.0589 47.0584 19 34.9526 19C22.8469 19 13.0332 27.0589 13.0332 37C13.0332 46.9411 22.8469 55 34.9526 55Z" fill="#0071BC"/>
</svg>
