<svg width="250" height="56" viewBox="0 0 250 56" fill="none" xmlns="http://www.w3.org/2000/svg">
<g clip-path="url(#clip0_760_257)">
<path opacity="0.39" d="M21.327 36.5C33.1056 36.5 42.654 28.4411 42.654 18.5C42.654 8.55887 33.1056 0.5 21.327 0.5C9.54843 0.5 0 8.55887 0 18.5C0 28.4411 9.54843 36.5 21.327 36.5Z" fill="#49951A"/>
<path opacity="0.39" d="M47.3934 36.5C59.172 36.5 68.7204 28.4411 68.7204 18.5C68.7204 8.55887 59.172 0.5 47.3934 0.5C35.6148 0.5 26.0664 8.55887 26.0664 18.5C26.0664 28.4411 35.6148 36.5 47.3934 36.5Z" fill="#0BA6FE"/>
<path opacity="0.29" d="M34.9526 55.5C47.0584 55.5 56.8721 47.4411 56.8721 37.5C56.8721 27.5589 47.0584 19.5 34.9526 19.5C22.8469 19.5 13.0332 27.5589 13.0332 37.5C13.0332 47.4411 22.8469 55.5 34.9526 55.5Z" fill="#0071BC"/>
<path d="M83.0612 16.7045C82.9855 15.8712 82.6484 15.2235 82.0499 14.7614C81.459 14.2917 80.6143 14.0568 79.5158 14.0568C78.7885 14.0568 78.1825 14.1515 77.6976 14.3409C77.2128 14.5303 76.8491 14.7917 76.6067 15.125C76.3643 15.4508 76.2393 15.8258 76.2317 16.25C76.2165 16.5985 76.2847 16.9053 76.4362 17.1705C76.5953 17.4356 76.8226 17.6705 77.1181 17.875C77.4211 18.072 77.7847 18.2462 78.209 18.3977C78.6332 18.5492 79.1105 18.6818 79.6408 18.7955L81.6408 19.25C82.7923 19.5 83.8075 19.8333 84.6862 20.25C85.5726 20.6667 86.315 21.1629 86.9135 21.7386C87.5196 22.3144 87.9779 22.9773 88.2885 23.7273C88.5991 24.4773 88.7582 25.3182 88.7658 26.25C88.7582 27.7197 88.387 28.9811 87.6522 30.0341C86.9173 31.0871 85.8605 31.8939 84.4817 32.4545C83.1105 33.0152 81.4552 33.2955 79.5158 33.2955C77.5688 33.2955 75.8719 33.0038 74.4249 32.4205C72.9779 31.8371 71.8529 30.9508 71.0499 29.7614C70.2469 28.572 69.834 27.0682 69.8112 25.25H75.1976C75.2431 26 75.4438 26.625 75.7999 27.125C76.1559 27.625 76.6446 28.0038 77.2658 28.2614C77.8946 28.5189 78.6219 28.6477 79.4476 28.6477C80.2052 28.6477 80.8491 28.5455 81.3794 28.3409C81.9173 28.1364 82.3302 27.8523 82.6181 27.4886C82.9059 27.125 83.0537 26.7083 83.0612 26.2386C83.0537 25.7992 82.9173 25.4242 82.6522 25.1136C82.387 24.7955 81.9779 24.5227 81.4249 24.2955C80.8794 24.0606 80.1825 23.8447 79.334 23.6477L76.9022 23.0795C74.887 22.6174 73.2999 21.8712 72.1408 20.8409C70.9817 19.803 70.4059 18.4015 70.4135 16.6364C70.4059 15.197 70.7923 13.9356 71.5726 12.8523C72.3529 11.7689 73.4325 10.9242 74.8112 10.3182C76.19 9.71212 77.762 9.40909 79.5272 9.40909C81.3302 9.40909 82.8946 9.71591 84.2203 10.3295C85.5537 10.9356 86.5878 11.7879 87.3226 12.8864C88.0575 13.9848 88.4325 15.2576 88.4476 16.7045H83.0612ZM97.2317 9.72727V33H91.6067V9.72727H97.2317ZM100.763 9.72727H107.729L113.638 24.1364H113.911L119.82 9.72727H126.786V33H121.308V18.7045H121.115L115.524 32.8523H112.024L106.433 18.625H106.24V33H100.763V9.72727ZM144.374 9.72727H149.987V24.7386C149.987 26.4735 149.575 27.9848 148.749 29.2727C147.923 30.553 146.771 31.5455 145.294 32.25C143.817 32.947 142.101 33.2955 140.146 33.2955C138.169 33.2955 136.442 32.947 134.965 32.25C133.487 31.5455 132.34 30.553 131.521 29.2727C130.703 27.9848 130.294 26.4735 130.294 24.7386V9.72727H135.919V24.25C135.919 25.053 136.093 25.7689 136.442 26.3977C136.798 27.0265 137.294 27.5189 137.931 27.875C138.567 28.2311 139.306 28.4091 140.146 28.4091C140.987 28.4091 141.722 28.2311 142.351 27.875C142.987 27.5189 143.484 27.0265 143.84 26.3977C144.196 25.7689 144.374 25.053 144.374 24.25V9.72727Z" fill="#0071BC"/>
<path d="M155.761 33V9.72727H165.375C167.117 9.72727 168.621 10.0682 169.886 10.75C171.159 11.4242 172.14 12.3674 172.83 13.5795C173.519 14.7841 173.864 16.1856 173.864 17.7841C173.864 19.3902 173.511 20.7955 172.807 22C172.11 23.197 171.114 24.125 169.818 24.7841C168.523 25.4432 166.985 25.7727 165.205 25.7727H159.273V21.3409H164.159C165.008 21.3409 165.716 21.1932 166.284 20.8977C166.86 20.6023 167.295 20.1894 167.591 19.6591C167.886 19.1212 168.034 18.4962 168.034 17.7841C168.034 17.0644 167.886 16.4432 167.591 15.9205C167.295 15.3902 166.86 14.9811 166.284 14.6932C165.708 14.4053 165 14.2614 164.159 14.2614H161.386V33H155.761ZM176.636 33V9.72727H186.25C187.992 9.72727 189.496 10.0417 190.761 10.6705C192.034 11.2917 193.015 12.1856 193.705 13.3523C194.394 14.5114 194.739 15.8864 194.739 17.4773C194.739 19.0909 194.386 20.4621 193.682 21.5909C192.977 22.7121 191.977 23.5682 190.682 24.1591C189.386 24.7424 187.852 25.0341 186.08 25.0341H180V20.6023H185.034C185.883 20.6023 186.591 20.4924 187.159 20.2727C187.735 20.0455 188.17 19.7045 188.466 19.25C188.761 18.7879 188.909 18.197 188.909 17.4773C188.909 16.7576 188.761 16.1629 188.466 15.6932C188.17 15.2159 187.735 14.8598 187.159 14.625C186.583 14.3826 185.875 14.2614 185.034 14.2614H182.261V33H176.636ZM189.739 22.3636L195.534 33H189.398L183.716 22.3636H189.739ZM219.79 21.3636C219.79 23.9242 219.297 26.0947 218.312 27.875C217.328 29.6553 215.994 31.0076 214.312 31.9318C212.638 32.8561 210.759 33.3182 208.676 33.3182C206.585 33.3182 204.703 32.8523 203.028 31.9205C201.354 30.9886 200.025 29.6364 199.04 27.8636C198.062 26.0833 197.574 23.9167 197.574 21.3636C197.574 18.803 198.062 16.6326 199.04 14.8523C200.025 13.072 201.354 11.7197 203.028 10.7955C204.703 9.87121 206.585 9.40909 208.676 9.40909C210.759 9.40909 212.638 9.87121 214.312 10.7955C215.994 11.7197 217.328 13.072 218.312 14.8523C219.297 16.6326 219.79 18.803 219.79 21.3636ZM214.04 21.3636C214.04 19.8485 213.824 18.5682 213.392 17.5227C212.968 16.4773 212.354 15.6856 211.551 15.1477C210.756 14.6098 209.797 14.3409 208.676 14.3409C207.563 14.3409 206.604 14.6098 205.801 15.1477C204.998 15.6856 204.381 16.4773 203.949 17.5227C203.525 18.5682 203.312 19.8485 203.312 21.3636C203.312 22.8788 203.525 24.1591 203.949 25.2045C204.381 26.25 204.998 27.0417 205.801 27.5795C206.604 28.1174 207.563 28.3864 208.676 28.3864C209.797 28.3864 210.756 28.1174 211.551 27.5795C212.354 27.0417 212.968 26.25 213.392 25.2045C213.824 24.1591 214.04 22.8788 214.04 21.3636ZM223.074 33V9.72727H238.96V14.2955H228.699V19.0682H237.949V23.6477H228.699V33H223.074Z" fill="#0BA6FE"/>
<path d="M169.071 43.1445C169.028 42.7414 168.846 42.4274 168.526 42.2028C168.209 41.9781 167.797 41.8658 167.289 41.8658C166.932 41.8658 166.625 41.9196 166.37 42.0273C166.115 42.1351 165.919 42.2812 165.784 42.4659C165.648 42.6506 165.579 42.8614 165.576 43.0984C165.576 43.2953 165.621 43.4661 165.71 43.6108C165.802 43.7554 165.927 43.8786 166.084 43.9801C166.241 44.0786 166.415 44.1617 166.605 44.2294C166.796 44.2971 166.989 44.354 167.183 44.4002L168.069 44.6218C168.426 44.7049 168.769 44.8172 169.098 44.9588C169.431 45.1004 169.728 45.2789 169.989 45.4943C170.254 45.7098 170.463 45.9698 170.617 46.2745C170.771 46.5792 170.848 46.9362 170.848 47.3455C170.848 47.8995 170.706 48.3873 170.423 48.8089C170.14 49.2275 169.731 49.5553 169.195 49.7923C168.663 50.0262 168.018 50.1431 167.261 50.1431C166.525 50.1431 165.887 50.0292 165.345 49.8015C164.807 49.5737 164.385 49.2414 164.08 48.8043C163.779 48.3673 163.616 47.8349 163.591 47.207H165.276C165.301 47.5363 165.402 47.8103 165.581 48.0288C165.759 48.2473 165.991 48.4104 166.278 48.5181C166.567 48.6258 166.89 48.6797 167.247 48.6797C167.62 48.6797 167.946 48.6243 168.226 48.5135C168.509 48.3996 168.731 48.2427 168.891 48.0426C169.051 47.8395 169.132 47.6025 169.135 47.3317C169.132 47.0855 169.06 46.8823 168.918 46.7223C168.777 46.5592 168.578 46.4238 168.323 46.3161C168.07 46.2053 167.775 46.1068 167.436 46.0206L166.361 45.7436C165.582 45.5436 164.967 45.2404 164.514 44.8342C164.065 44.4248 163.84 43.8816 163.84 43.2045C163.84 42.6475 163.991 42.1597 164.293 41.7411C164.597 41.3226 165.011 40.9979 165.534 40.767C166.058 40.5331 166.65 40.4162 167.312 40.4162C167.983 40.4162 168.571 40.5331 169.075 40.767C169.583 40.9979 169.982 41.3195 170.271 41.7319C170.56 42.1412 170.71 42.6121 170.719 43.1445H169.071ZM172.301 50V42.9091H173.972V50H172.301ZM173.141 41.9027C172.877 41.9027 172.649 41.815 172.458 41.6396C172.267 41.4611 172.172 41.2472 172.172 40.9979C172.172 40.7455 172.267 40.5316 172.458 40.3562C172.649 40.1777 172.877 40.0884 173.141 40.0884C173.409 40.0884 173.637 40.1777 173.824 40.3562C174.015 40.5316 174.111 40.7455 174.111 40.9979C174.111 41.2472 174.015 41.4611 173.824 41.6396C173.637 41.815 173.409 41.9027 173.141 41.9027ZM175.691 50V42.9091H177.288V44.114H177.371C177.519 43.7077 177.763 43.3907 178.105 43.163C178.447 42.9322 178.855 42.8168 179.328 42.8168C179.809 42.8168 180.213 42.9337 180.543 43.1676C180.875 43.3984 181.109 43.7139 181.244 44.114H181.318C181.475 43.7201 181.74 43.4061 182.112 43.1722C182.488 42.9353 182.932 42.8168 183.446 42.8168C184.099 42.8168 184.631 43.023 185.044 43.4354C185.456 43.8478 185.662 44.4495 185.662 45.2404V50H183.987V45.4989C183.987 45.0588 183.87 44.7372 183.636 44.5341C183.402 44.3279 183.116 44.2248 182.777 44.2248C182.374 44.2248 182.058 44.351 181.831 44.6033C181.606 44.8526 181.494 45.1773 181.494 45.5774V50H179.855V45.4297C179.855 45.0634 179.744 44.7711 179.522 44.5526C179.304 44.334 179.018 44.2248 178.664 44.2248C178.424 44.2248 178.205 44.2863 178.008 44.4094C177.811 44.5295 177.654 44.7003 177.537 44.9219C177.42 45.1404 177.362 45.3958 177.362 45.6882V50H175.691ZM191.877 47.0178V42.9091H193.548V50H191.928V48.7397H191.854C191.694 49.1367 191.431 49.4614 191.065 49.7138C190.702 49.9661 190.254 50.0923 189.721 50.0923C189.257 50.0923 188.846 49.9892 188.489 49.783C188.135 49.5737 187.858 49.2706 187.658 48.8736C187.458 48.4735 187.358 47.9903 187.358 47.424V42.9091H189.029V47.1655C189.029 47.6148 189.152 47.9718 189.398 48.2365C189.644 48.5012 189.968 48.6335 190.368 48.6335C190.614 48.6335 190.852 48.5735 191.083 48.4535C191.314 48.3335 191.503 48.1549 191.651 47.918C191.802 47.6779 191.877 47.3778 191.877 47.0178ZM196.938 40.5455V50H195.267V40.5455H196.938ZM200.697 50.1431C200.248 50.1431 199.843 50.0631 199.483 49.9031C199.126 49.7399 198.843 49.4999 198.633 49.1829C198.427 48.8659 198.324 48.475 198.324 48.0103C198.324 47.6102 198.398 47.2794 198.546 47.0178C198.693 46.7562 198.895 46.5469 199.15 46.3899C199.406 46.233 199.694 46.1145 200.014 46.0344C200.337 45.9513 200.671 45.8913 201.016 45.8544C201.431 45.8113 201.768 45.7728 202.027 45.739C202.285 45.7021 202.473 45.6467 202.59 45.5728C202.71 45.4959 202.77 45.3774 202.77 45.2173V45.1896C202.77 44.8419 202.667 44.5726 202.46 44.3817C202.254 44.1909 201.957 44.0955 201.57 44.0955C201.16 44.0955 200.835 44.1848 200.595 44.3633C200.358 44.5418 200.198 44.7526 200.115 44.9957L198.555 44.7741C198.678 44.3433 198.881 43.9832 199.164 43.6939C199.447 43.4015 199.794 43.183 200.203 43.0384C200.612 42.8906 201.065 42.8168 201.56 42.8168C201.902 42.8168 202.242 42.8568 202.581 42.9368C202.919 43.0168 203.228 43.1491 203.508 43.3338C203.789 43.5154 204.013 43.7631 204.182 44.0771C204.355 44.391 204.441 44.7834 204.441 45.2543V50H202.834V49.0259H202.779C202.677 49.2229 202.534 49.4076 202.35 49.5799C202.168 49.7492 201.939 49.8861 201.662 49.9908C201.388 50.0923 201.066 50.1431 200.697 50.1431ZM201.131 48.9151C201.466 48.9151 201.757 48.849 202.003 48.7166C202.25 48.5812 202.439 48.4027 202.571 48.1811C202.707 47.9595 202.774 47.7179 202.774 47.4563V46.6207C202.722 46.6638 202.633 46.7038 202.507 46.7408C202.384 46.7777 202.245 46.81 202.091 46.8377C201.937 46.8654 201.785 46.89 201.634 46.9116C201.483 46.9331 201.353 46.9516 201.242 46.967C200.992 47.0008 200.769 47.0562 200.572 47.1332C200.375 47.2101 200.22 47.3178 200.106 47.4563C199.992 47.5917 199.935 47.7672 199.935 47.9826C199.935 48.2904 200.048 48.5227 200.272 48.6797C200.497 48.8366 200.783 48.9151 201.131 48.9151ZM209.662 42.9091V44.2017H205.586V42.9091H209.662ZM206.592 41.2102H208.263V47.8672C208.263 48.0919 208.297 48.2642 208.365 48.3842C208.436 48.5012 208.528 48.5812 208.642 48.6243C208.756 48.6674 208.882 48.6889 209.021 48.6889C209.125 48.6889 209.221 48.6812 209.307 48.6658C209.396 48.6504 209.464 48.6366 209.51 48.6243L209.791 49.9308C209.702 49.9615 209.574 49.9954 209.408 50.0323C209.245 50.0692 209.045 50.0908 208.808 50.0969C208.39 50.1093 208.013 50.0462 207.677 49.9077C207.342 49.7661 207.075 49.5476 206.878 49.2521C206.685 48.9567 206.589 48.5874 206.592 48.1442V41.2102ZM211.06 50V42.9091H212.731V50H211.06ZM211.9 41.9027C211.635 41.9027 211.408 41.815 211.217 41.6396C211.026 41.4611 210.931 41.2472 210.931 40.9979C210.931 40.7455 211.026 40.5316 211.217 40.3562C211.408 40.1777 211.635 40.0884 211.9 40.0884C212.168 40.0884 212.396 40.1777 212.583 40.3562C212.774 40.5316 212.869 40.7455 212.869 40.9979C212.869 41.2472 212.774 41.4611 212.583 41.6396C212.396 41.815 212.168 41.9027 211.9 41.9027ZM217.543 50.1385C216.85 50.1385 216.25 49.9862 215.742 49.6815C215.234 49.3768 214.84 48.9505 214.56 48.4027C214.283 47.8549 214.145 47.2147 214.145 46.4822C214.145 45.7498 214.283 45.1081 214.56 44.5572C214.84 44.0063 215.234 43.5785 215.742 43.2738C216.25 42.9691 216.85 42.8168 217.543 42.8168C218.235 42.8168 218.835 42.9691 219.343 43.2738C219.851 43.5785 220.243 44.0063 220.52 44.5572C220.8 45.1081 220.94 45.7498 220.94 46.4822C220.94 47.2147 220.8 47.8549 220.52 48.4027C220.243 48.9505 219.851 49.3768 219.343 49.6815C218.835 49.9862 218.235 50.1385 217.543 50.1385ZM217.552 48.7997C217.927 48.7997 218.241 48.6966 218.494 48.4904C218.746 48.2811 218.934 48.0011 219.057 47.6502C219.183 47.2994 219.246 46.9085 219.246 46.4776C219.246 46.0437 219.183 45.6513 219.057 45.3004C218.934 44.9465 218.746 44.6649 218.494 44.4556C218.241 44.2463 217.927 44.1417 217.552 44.1417C217.167 44.1417 216.847 44.2463 216.592 44.4556C216.339 44.6649 216.15 44.9465 216.024 45.3004C215.901 45.6513 215.839 46.0437 215.839 46.4776C215.839 46.9085 215.901 47.2994 216.024 47.6502C216.15 48.0011 216.339 48.2811 216.592 48.4904C216.847 48.6966 217.167 48.7997 217.552 48.7997ZM224.03 45.8452V50H222.359V42.9091H223.956V44.114H224.039C224.202 43.717 224.462 43.4015 224.819 43.1676C225.179 42.9337 225.624 42.8168 226.153 42.8168C226.643 42.8168 227.069 42.9214 227.432 43.1307C227.798 43.34 228.082 43.6431 228.282 44.0401C228.485 44.4371 228.585 44.9188 228.582 45.4851V50H226.911V45.7436C226.911 45.2696 226.787 44.8988 226.541 44.631C226.298 44.3633 225.961 44.2294 225.53 44.2294C225.238 44.2294 224.978 44.294 224.75 44.4233C224.525 44.5495 224.348 44.7326 224.219 44.9727C224.093 45.2127 224.03 45.5036 224.03 45.8452ZM235.885 44.7834L234.362 44.9496C234.318 44.7957 234.243 44.651 234.135 44.5156C234.031 44.3802 233.889 44.271 233.711 44.1879C233.532 44.1048 233.314 44.0632 233.055 44.0632C232.707 44.0632 232.415 44.1386 232.178 44.2894C231.944 44.4402 231.829 44.6357 231.832 44.8757C231.829 45.0819 231.904 45.2496 232.058 45.3789C232.215 45.5082 232.473 45.6143 232.833 45.6974L234.043 45.956C234.714 46.1006 235.212 46.3299 235.539 46.6438C235.868 46.9577 236.034 47.3686 236.037 47.8764C236.034 48.3227 235.903 48.7166 235.645 49.0582C235.389 49.3968 235.034 49.6615 234.578 49.8523C234.123 50.0431 233.6 50.1385 233.009 50.1385C232.141 50.1385 231.442 49.9569 230.913 49.5938C230.384 49.2275 230.068 48.7182 229.967 48.0657L231.596 47.9087C231.67 48.2288 231.827 48.4704 232.067 48.6335C232.307 48.7966 232.62 48.8782 233.004 48.8782C233.401 48.8782 233.72 48.7966 233.96 48.6335C234.203 48.4704 234.325 48.2688 234.325 48.0288C234.325 47.8256 234.246 47.6579 234.089 47.5256C233.935 47.3932 233.695 47.2917 233.369 47.2209L232.159 46.967C231.479 46.8254 230.976 46.5869 230.65 46.2514C230.324 45.9129 230.162 45.4851 230.165 44.968C230.162 44.531 230.281 44.1525 230.521 43.8324C230.764 43.5092 231.101 43.2599 231.532 43.0845C231.966 42.906 232.466 42.8168 233.032 42.8168C233.863 42.8168 234.517 42.9937 234.994 43.3477C235.474 43.7016 235.771 44.1802 235.885 44.7834Z" fill="#878787"/>
<rect x="229.151" y="16.8198" width="1.91173" height="19.9938" transform="rotate(1.13915 229.151 16.8198)" fill="white"/>
<rect x="126.338" y="9.90758" width="1.91173" height="19.9938" transform="rotate(27.189 126.338 9.90758)" fill="white"/>
</g>
<defs>
<clipPath id="clip0_760_257">
<rect width="250" height="56" fill="white"/>
</clipPath>
</defs>
</svg>
