<svg width="250" height="56" viewBox="0 0 250 56" fill="none" xmlns="http://www.w3.org/2000/svg">
<g clip-path="url(#clip0_771_308)">
<path d="M25.6151 18.5753C25.5062 17.3774 25.0215 16.4463 24.1612 15.782C23.3118 15.1068 22.0975 14.7692 20.5185 14.7692C19.473 14.7692 18.6018 14.9053 17.9048 15.1776C17.2079 15.4498 16.6851 15.8255 16.3366 16.3047C15.9882 16.773 15.8085 17.312 15.7976 17.9219C15.7758 18.4228 15.8738 18.8639 16.0916 19.245C16.3203 19.6262 16.647 19.9638 17.0717 20.2578C17.5073 20.541 18.0301 20.7914 18.6399 21.0092C19.2498 21.227 19.9358 21.4176 20.6982 21.581L23.5732 22.2344C25.2285 22.5938 26.6877 23.0729 27.951 23.6719C29.2251 24.2708 30.2924 24.9841 31.1527 25.8118C32.0239 26.6394 32.6828 27.5923 33.1293 28.6705C33.5758 29.7486 33.8045 30.9574 33.8153 32.2969C33.8045 34.4096 33.2708 36.2228 32.2145 37.7365C31.1581 39.2502 29.639 40.41 27.657 41.2159C25.6858 42.0218 23.3063 42.4247 20.5185 42.4247C17.7197 42.4247 15.2803 42.0054 13.2003 41.1669C11.1203 40.3284 9.50308 39.0542 8.34872 37.3445C7.19437 35.6347 6.60085 33.473 6.56818 30.8594H14.3111C14.3764 31.9375 14.665 32.8359 15.1768 33.5547C15.6887 34.2734 16.3911 34.8179 17.2841 35.1882C18.188 35.5585 19.2334 35.7436 20.4205 35.7436C21.5095 35.7436 22.4351 35.5966 23.1974 35.3026C23.9706 35.0085 24.5642 34.6001 24.978 34.0774C25.3918 33.5547 25.6042 32.9557 25.6151 32.2805C25.6042 31.6489 25.4081 31.1098 25.027 30.6634C24.6458 30.206 24.0578 29.8139 23.2628 29.4872C22.4787 29.1496 21.4768 28.8393 20.2571 28.5561L16.7614 27.7393C13.8646 27.075 11.5831 26.0024 9.9169 24.5213C8.25071 23.0294 7.42306 21.0147 7.43395 18.4773C7.42306 16.4081 7.97846 14.5949 9.10014 13.0376C10.2218 11.4803 11.7737 10.2661 13.7557 9.39489C15.7377 8.52367 17.9974 8.08807 20.5348 8.08807C23.1267 8.08807 25.3755 8.52912 27.2812 9.41122C29.1979 10.2824 30.6844 11.5076 31.7408 13.0866C32.7971 14.6657 33.3362 16.4953 33.358 18.5753H25.6151ZM45.9851 8.54545V42H37.8991V8.54545H45.9851ZM51.0613 8.54545H61.0748L69.5691 29.2585H69.9611L78.4554 8.54545H88.4689V42H80.5953V21.4503H80.3177L72.2807 41.7876H67.2495L59.2125 21.3359H58.9348V42H51.0613V8.54545ZM113.752 8.54545H121.821V30.1243C121.821 32.6181 121.228 34.7907 120.041 36.642C118.854 38.4825 117.199 39.9091 115.075 40.9219C112.951 41.9238 110.485 42.4247 107.675 42.4247C104.833 42.4247 102.35 41.9238 100.226 40.9219C98.1026 39.9091 96.4528 38.4825 95.2766 36.642C94.1005 34.7907 93.5124 32.6181 93.5124 30.1243V8.54545H101.598V29.4219C101.598 30.5762 101.849 31.6053 102.35 32.5092C102.862 33.4131 103.575 34.121 104.49 34.6328C105.404 35.1446 106.466 35.4006 107.675 35.4006C108.884 35.4006 109.94 35.1446 110.844 34.6328C111.759 34.121 112.472 33.4131 112.984 32.5092C113.496 31.6053 113.752 30.5762 113.752 29.4219V8.54545Z" fill="#0071BC"/>
<path d="M124.532 42V8.54545H138.352C140.856 8.54545 143.018 9.03551 144.837 10.0156C146.666 10.9848 148.076 12.3407 149.067 14.0831C150.058 15.8146 150.554 17.8293 150.554 20.1271C150.554 22.4358 150.048 24.456 149.035 26.1875C148.033 27.9081 146.601 29.2422 144.739 30.1896C142.876 31.1371 140.666 31.6108 138.107 31.6108H129.58V25.2401H136.604C137.823 25.2401 138.842 25.0277 139.658 24.603C140.486 24.1783 141.112 23.5848 141.537 22.8224C141.962 22.0492 142.174 21.1508 142.174 20.1271C142.174 19.0926 141.962 18.1996 141.537 17.4482C141.112 16.6858 140.486 16.0978 139.658 15.6839C138.831 15.2701 137.813 15.0632 136.604 15.0632H132.618V42H124.532ZM154.54 42V8.54545H168.359C170.864 8.54545 173.026 8.99739 174.844 9.90128C176.674 10.7943 178.084 12.0793 179.075 13.7564C180.066 15.4226 180.562 17.3991 180.562 19.6861C180.562 22.0057 180.055 23.9768 179.043 25.5994C178.03 27.2112 176.592 28.4418 174.73 29.2912C172.868 30.1297 170.663 30.549 168.114 30.549H159.375V24.1783H166.612C167.831 24.1783 168.849 24.0204 169.666 23.7045C170.494 23.3778 171.12 22.8878 171.545 22.2344C171.969 21.5701 172.182 20.7206 172.182 19.6861C172.182 18.6515 171.969 17.7966 171.545 17.1214C171.12 16.4354 170.494 15.9235 169.666 15.5859C168.839 15.2375 167.82 15.0632 166.612 15.0632H162.626V42H154.54ZM173.374 26.7102L181.705 42H172.884L164.717 26.7102H173.374ZM216.573 25.2727C216.573 28.9536 215.865 32.0736 214.449 34.6328C213.033 37.192 211.117 39.1359 208.699 40.4645C206.292 41.7931 203.592 42.4574 200.597 42.4574C197.591 42.4574 194.885 41.7876 192.478 40.4482C190.072 39.1087 188.16 37.1648 186.745 34.6165C185.34 32.0573 184.637 28.9427 184.637 25.2727C184.637 21.5919 185.34 18.4718 186.745 15.9126C188.16 13.3535 190.072 11.4096 192.478 10.081C194.885 8.75237 197.591 8.08807 200.597 8.08807C203.592 8.08807 206.292 8.75237 208.699 10.081C211.117 11.4096 213.033 13.3535 214.449 15.9126C215.865 18.4718 216.573 21.5919 216.573 25.2727ZM208.307 25.2727C208.307 23.0947 207.997 21.2543 207.376 19.7514C206.766 18.2486 205.884 17.1106 204.73 16.3374C203.586 15.5642 202.209 15.1776 200.597 15.1776C198.996 15.1776 197.618 15.5642 196.464 16.3374C195.31 17.1106 194.422 18.2486 193.801 19.7514C193.192 21.2543 192.887 23.0947 192.887 25.2727C192.887 27.4508 193.192 29.2912 193.801 30.794C194.422 32.2969 195.31 33.4349 196.464 34.2081C197.618 34.9813 198.996 35.3679 200.597 35.3679C202.209 35.3679 203.586 34.9813 204.73 34.2081C205.884 33.4349 206.766 32.2969 207.376 30.794C207.997 29.2912 208.307 27.4508 208.307 25.2727ZM221.294 42V8.54545H244.13V15.1122H229.38V21.973H242.676V28.5561H229.38V42H221.294Z" fill="#0BA6FE"/>
<rect x="85.9935" y="6.7141" width="3.74417" height="31.749" transform="rotate(21.1581 85.9935 6.7141)" fill="white"/>
<rect x="229" y="15.0655" width="3.74417" height="31.749" transform="rotate(-1.00298 229 15.0655)" fill="white"/>
<path d="M126.557 45.1818V51H125.528V45.1818H126.557ZM128.87 51.0881C128.594 51.0881 128.344 51.0388 128.123 50.9403C127.903 50.84 127.729 50.6922 127.6 50.4972C127.473 50.3021 127.41 50.0616 127.41 49.7756C127.41 49.5294 127.455 49.3258 127.546 49.1648C127.637 49.0038 127.761 48.875 127.918 48.7784C128.076 48.6818 128.253 48.6089 128.45 48.5597C128.648 48.5085 128.854 48.4716 129.066 48.4489C129.322 48.4223 129.529 48.3987 129.688 48.3778C129.847 48.3551 129.963 48.321 130.035 48.2756C130.109 48.2282 130.146 48.1553 130.146 48.0568V48.0398C130.146 47.8258 130.082 47.66 129.955 47.5426C129.828 47.4252 129.646 47.3665 129.407 47.3665C129.155 47.3665 128.955 47.4214 128.808 47.5312C128.662 47.6411 128.563 47.7708 128.512 47.9205L127.552 47.7841C127.628 47.5189 127.753 47.2973 127.927 47.1193C128.101 46.9394 128.314 46.8049 128.566 46.7159C128.818 46.625 129.096 46.5795 129.401 46.5795C129.612 46.5795 129.821 46.6042 130.029 46.6534C130.237 46.7027 130.428 46.7841 130.6 46.8977C130.772 47.0095 130.911 47.1619 131.015 47.3551C131.121 47.5483 131.174 47.7898 131.174 48.0795V51H130.185V50.4006H130.151C130.089 50.5218 130.001 50.6354 129.887 50.7415C129.775 50.8456 129.634 50.9299 129.464 50.9943C129.295 51.0568 129.097 51.0881 128.87 51.0881ZM129.137 50.3324C129.344 50.3324 129.522 50.2917 129.674 50.2102C129.826 50.1269 129.942 50.017 130.023 49.8807C130.107 49.7443 130.148 49.5956 130.148 49.4347V48.9205C130.116 48.947 130.061 48.9716 129.984 48.9943C129.908 49.017 129.823 49.0369 129.728 49.054C129.633 49.071 129.54 49.0862 129.447 49.0994C129.354 49.1127 129.273 49.1241 129.205 49.1335C129.052 49.1544 128.915 49.1884 128.793 49.2358C128.672 49.2831 128.576 49.3494 128.506 49.4347C128.436 49.518 128.401 49.6259 128.401 49.7585C128.401 49.9479 128.47 50.0909 128.609 50.1875C128.747 50.2841 128.923 50.3324 129.137 50.3324ZM137.641 47.7898L136.704 47.892C136.677 47.7973 136.631 47.7083 136.565 47.625C136.5 47.5417 136.413 47.4744 136.303 47.4233C136.193 47.3722 136.059 47.3466 135.9 47.3466C135.686 47.3466 135.506 47.393 135.36 47.4858C135.216 47.5786 135.145 47.6989 135.147 47.8466C135.145 47.9735 135.192 48.0767 135.286 48.1562C135.383 48.2358 135.542 48.3011 135.763 48.3523L136.508 48.5114C136.921 48.6004 137.228 48.7415 137.428 48.9347C137.631 49.1278 137.733 49.3807 137.735 49.6932C137.733 49.9678 137.653 50.2102 137.494 50.4205C137.336 50.6288 137.118 50.7917 136.837 50.9091C136.557 51.0265 136.235 51.0852 135.871 51.0852C135.337 51.0852 134.907 50.9735 134.582 50.75C134.256 50.5246 134.062 50.2112 133.999 49.8097L135.002 49.7131C135.048 49.91 135.144 50.0587 135.292 50.1591C135.44 50.2595 135.632 50.3097 135.869 50.3097C136.113 50.3097 136.309 50.2595 136.457 50.1591C136.606 50.0587 136.681 49.9347 136.681 49.7869C136.681 49.6619 136.633 49.5587 136.536 49.4773C136.442 49.3958 136.294 49.3333 136.093 49.2898L135.349 49.1335C134.93 49.0464 134.621 48.8996 134.42 48.6932C134.219 48.4848 134.12 48.2216 134.121 47.9034C134.12 47.6345 134.192 47.4015 134.34 47.2045C134.49 47.0057 134.697 46.8523 134.962 46.7443C135.229 46.6345 135.537 46.5795 135.886 46.5795C136.397 46.5795 136.799 46.6884 137.093 46.9062C137.388 47.1241 137.571 47.4186 137.641 47.7898ZM138.583 51V46.6364H139.612V51H138.583ZM139.1 46.017C138.937 46.017 138.797 45.9631 138.68 45.8551C138.562 45.7453 138.504 45.6136 138.504 45.4602C138.504 45.3049 138.562 45.1733 138.68 45.0653C138.797 44.9555 138.937 44.9006 139.1 44.9006C139.265 44.9006 139.405 44.9555 139.521 45.0653C139.638 45.1733 139.697 45.3049 139.697 45.4602C139.697 45.6136 139.638 45.7453 139.521 45.8551C139.405 45.9631 139.265 46.017 139.1 46.017ZM140.669 51V46.6364H141.652V47.3778H141.703C141.794 47.1278 141.945 46.9328 142.155 46.7926C142.365 46.6506 142.616 46.5795 142.908 46.5795C143.203 46.5795 143.452 46.6515 143.655 46.7955C143.859 46.9375 144.003 47.1316 144.087 47.3778H144.132C144.229 47.1354 144.392 46.9422 144.621 46.7983C144.852 46.6525 145.125 46.5795 145.442 46.5795C145.843 46.5795 146.171 46.7064 146.425 46.9602C146.679 47.214 146.805 47.5843 146.805 48.071V51H145.774V48.2301C145.774 47.9593 145.702 47.7614 145.558 47.6364C145.414 47.5095 145.238 47.446 145.03 47.446C144.782 47.446 144.588 47.5237 144.447 47.679C144.309 47.8324 144.24 48.0322 144.24 48.2784V51H143.232V48.1875C143.232 47.9621 143.163 47.7822 143.027 47.6477C142.893 47.5133 142.716 47.446 142.499 47.446C142.351 47.446 142.216 47.4839 142.095 47.5597C141.974 47.6335 141.877 47.7386 141.805 47.875C141.733 48.0095 141.697 48.1667 141.697 48.3466V51H140.669ZM150.63 49.1648V46.6364H151.658V51H150.661V50.2244H150.616C150.517 50.4687 150.355 50.6686 150.13 50.8239C149.906 50.9792 149.631 51.0568 149.303 51.0568C149.017 51.0568 148.764 50.9934 148.545 50.8665C148.327 50.7377 148.156 50.5511 148.033 50.3068C147.91 50.0606 147.849 49.7633 147.849 49.4148V46.6364H148.877V49.2557C148.877 49.5322 148.953 49.7519 149.104 49.9148C149.256 50.0777 149.455 50.1591 149.701 50.1591C149.853 50.1591 149.999 50.1222 150.141 50.0483C150.283 49.9744 150.4 49.8646 150.491 49.7188C150.584 49.571 150.63 49.3864 150.63 49.1648ZM153.744 45.1818V51H152.716V45.1818H153.744ZM156.058 51.0881C155.781 51.0881 155.532 51.0388 155.31 50.9403C155.091 50.84 154.916 50.6922 154.788 50.4972C154.661 50.3021 154.597 50.0616 154.597 49.7756C154.597 49.5294 154.643 49.3258 154.734 49.1648C154.825 49.0038 154.949 48.875 155.106 48.7784C155.263 48.6818 155.44 48.6089 155.637 48.5597C155.836 48.5085 156.041 48.4716 156.254 48.4489C156.509 48.4223 156.717 48.3987 156.876 48.3778C157.035 48.3551 157.15 48.321 157.222 48.2756C157.296 48.2282 157.333 48.1553 157.333 48.0568V48.0398C157.333 47.8258 157.27 47.66 157.143 47.5426C157.016 47.4252 156.833 47.3665 156.594 47.3665C156.343 47.3665 156.143 47.4214 155.995 47.5312C155.849 47.6411 155.751 47.7708 155.7 47.9205L154.739 47.7841C154.815 47.5189 154.94 47.2973 155.114 47.1193C155.289 46.9394 155.502 46.8049 155.754 46.7159C156.005 46.625 156.284 46.5795 156.589 46.5795C156.799 46.5795 157.008 46.6042 157.217 46.6534C157.425 46.7027 157.615 46.7841 157.788 46.8977C157.96 47.0095 158.098 47.1619 158.202 47.3551C158.308 47.5483 158.362 47.7898 158.362 48.0795V51H157.373V50.4006H157.339C157.276 50.5218 157.188 50.6354 157.075 50.7415C156.963 50.8456 156.822 50.9299 156.651 50.9943C156.483 51.0568 156.285 51.0881 156.058 51.0881ZM156.325 50.3324C156.531 50.3324 156.71 50.2917 156.862 50.2102C157.013 50.1269 157.129 50.017 157.211 49.8807C157.294 49.7443 157.336 49.5956 157.336 49.4347V48.9205C157.304 48.947 157.249 48.9716 157.171 48.9943C157.095 49.017 157.01 49.0369 156.915 49.054C156.821 49.071 156.727 49.0862 156.634 49.0994C156.541 49.1127 156.461 49.1241 156.393 49.1335C156.239 49.1544 156.102 49.1884 155.981 49.2358C155.86 49.2831 155.764 49.3494 155.694 49.4347C155.624 49.518 155.589 49.6259 155.589 49.7585C155.589 49.9479 155.658 50.0909 155.796 50.1875C155.934 50.2841 156.111 50.3324 156.325 50.3324ZM161.575 46.6364V47.4318H159.066V46.6364H161.575ZM159.685 45.5909H160.714V49.6875C160.714 49.8258 160.735 49.9318 160.776 50.0057C160.82 50.0777 160.877 50.1269 160.947 50.1534C161.017 50.1799 161.094 50.1932 161.18 50.1932C161.244 50.1932 161.303 50.1884 161.356 50.179C161.411 50.1695 161.452 50.161 161.481 50.1534L161.654 50.9574C161.599 50.9763 161.521 50.9972 161.418 51.0199C161.318 51.0426 161.195 51.0559 161.049 51.0597C160.791 51.0672 160.559 51.0284 160.353 50.9432C160.147 50.8561 159.983 50.7216 159.862 50.5398C159.742 50.358 159.683 50.1307 159.685 49.858V45.5909ZM162.435 51V46.6364H163.463V51H162.435ZM162.952 46.017C162.789 46.017 162.649 45.9631 162.531 45.8551C162.414 45.7453 162.355 45.6136 162.355 45.4602C162.355 45.3049 162.414 45.1733 162.531 45.0653C162.649 44.9555 162.789 44.9006 162.952 44.9006C163.116 44.9006 163.257 44.9555 163.372 45.0653C163.49 45.1733 163.548 45.3049 163.548 45.4602C163.548 45.6136 163.49 45.7453 163.372 45.8551C163.257 45.9631 163.116 46.017 162.952 46.017ZM166.424 51.0852C165.998 51.0852 165.629 50.9915 165.316 50.804C165.004 50.6165 164.761 50.3542 164.589 50.017C164.418 49.6799 164.333 49.286 164.333 48.8352C164.333 48.3845 164.418 47.9896 164.589 47.6506C164.761 47.3116 165.004 47.0483 165.316 46.8608C165.629 46.6733 165.998 46.5795 166.424 46.5795C166.85 46.5795 167.219 46.6733 167.532 46.8608C167.844 47.0483 168.086 47.3116 168.256 47.6506C168.429 47.9896 168.515 48.3845 168.515 48.8352C168.515 49.286 168.429 49.6799 168.256 50.017C168.086 50.3542 167.844 50.6165 167.532 50.804C167.219 50.9915 166.85 51.0852 166.424 51.0852ZM166.43 50.2614C166.661 50.2614 166.854 50.1979 167.009 50.071C167.165 49.9422 167.28 49.7699 167.356 49.554C167.433 49.3381 167.472 49.0975 167.472 48.8324C167.472 48.5653 167.433 48.3239 167.356 48.108C167.28 47.8902 167.165 47.7169 167.009 47.5881C166.854 47.4593 166.661 47.3949 166.43 47.3949C166.193 47.3949 165.996 47.4593 165.839 47.5881C165.683 47.7169 165.567 47.8902 165.489 48.108C165.414 48.3239 165.376 48.5653 165.376 48.8324C165.376 49.0975 165.414 49.3381 165.489 49.554C165.567 49.7699 165.683 49.9422 165.839 50.071C165.996 50.1979 166.193 50.2614 166.43 50.2614ZM170.416 48.4432V51H169.388V46.6364H170.371V47.3778H170.422C170.522 47.1335 170.682 46.9394 170.902 46.7955C171.124 46.6515 171.397 46.5795 171.723 46.5795C172.024 46.5795 172.286 46.6439 172.51 46.7727C172.735 46.9015 172.91 47.0881 173.033 47.3324C173.158 47.5767 173.219 47.8731 173.217 48.2216V51H172.189V48.3807C172.189 48.089 172.113 47.8608 171.962 47.696C171.812 47.5312 171.605 47.4489 171.339 47.4489C171.16 47.4489 171 47.4886 170.859 47.5682C170.721 47.6458 170.612 47.7585 170.533 47.9062C170.455 48.054 170.416 48.233 170.416 48.4432ZM177.866 51.0767C177.524 51.0767 177.217 50.9886 176.946 50.8125C176.675 50.6364 176.461 50.3807 176.304 50.0455C176.147 49.7102 176.068 49.303 176.068 48.8239C176.068 48.339 176.148 47.9299 176.307 47.5966C176.468 47.2614 176.685 47.0085 176.957 46.8381C177.23 46.6657 177.534 46.5795 177.869 46.5795C178.125 46.5795 178.335 46.6231 178.5 46.7102C178.665 46.7955 178.795 46.8987 178.892 47.0199C178.989 47.1392 179.063 47.2519 179.116 47.358H179.159V45.1818H180.19V51H179.179V50.3125H179.116C179.063 50.4186 178.987 50.5312 178.886 50.6506C178.786 50.768 178.653 50.8684 178.489 50.9517C178.324 51.035 178.116 51.0767 177.866 51.0767ZM178.153 50.233C178.371 50.233 178.557 50.1742 178.71 50.0568C178.864 49.9375 178.98 49.7718 179.06 49.5597C179.139 49.3475 179.179 49.1004 179.179 48.8182C179.179 48.536 179.139 48.2907 179.06 48.0824C178.982 47.8741 178.866 47.7121 178.713 47.5966C178.562 47.4811 178.375 47.4233 178.153 47.4233C177.924 47.4233 177.733 47.483 177.58 47.6023C177.426 47.7216 177.311 47.8864 177.233 48.0966C177.155 48.3068 177.116 48.5473 177.116 48.8182C177.116 49.0909 177.155 49.3343 177.233 49.5483C177.313 49.7604 177.429 49.928 177.582 50.0511C177.738 50.1723 177.928 50.233 178.153 50.233ZM183.218 51.0852C182.781 51.0852 182.403 50.9943 182.085 50.8125C181.768 50.6288 181.525 50.3693 181.354 50.0341C181.184 49.697 181.099 49.3002 181.099 48.8438C181.099 48.3949 181.184 48.0009 181.354 47.6619C181.527 47.321 181.767 47.0559 182.076 46.8665C182.385 46.6752 182.747 46.5795 183.164 46.5795C183.433 46.5795 183.687 46.6231 183.925 46.7102C184.166 46.7955 184.378 46.928 184.562 47.108C184.747 47.2879 184.893 47.517 184.999 47.7955C185.105 48.072 185.158 48.4015 185.158 48.7841V49.0994H181.582V48.4062H184.173C184.171 48.2093 184.128 48.0341 184.045 47.8807C183.961 47.7254 183.845 47.6032 183.695 47.5142C183.548 47.4252 183.375 47.3807 183.178 47.3807C182.968 47.3807 182.783 47.4318 182.624 47.5341C182.465 47.6345 182.341 47.767 182.252 47.9318C182.165 48.0947 182.121 48.2737 182.119 48.4688V49.0739C182.119 49.3277 182.165 49.5455 182.258 49.7273C182.351 49.9072 182.48 50.0455 182.647 50.142C182.814 50.2367 183.009 50.2841 183.232 50.2841C183.382 50.2841 183.517 50.2633 183.638 50.2216C183.76 50.178 183.865 50.1146 183.954 50.0312C184.043 49.9479 184.11 49.8447 184.156 49.7216L185.116 49.8295C185.055 50.0833 184.94 50.3049 184.769 50.4943C184.601 50.6818 184.385 50.8277 184.121 50.9318C183.858 51.0341 183.557 51.0852 183.218 51.0852ZM189.477 47.7898L188.54 47.892C188.513 47.7973 188.467 47.7083 188.401 47.625C188.336 47.5417 188.249 47.4744 188.139 47.4233C188.029 47.3722 187.895 47.3466 187.736 47.3466C187.522 47.3466 187.342 47.393 187.196 47.4858C187.052 47.5786 186.981 47.6989 186.983 47.8466C186.981 47.9735 187.027 48.0767 187.122 48.1562C187.219 48.2358 187.378 48.3011 187.599 48.3523L188.344 48.5114C188.757 48.6004 189.063 48.7415 189.264 48.9347C189.467 49.1278 189.569 49.3807 189.571 49.6932C189.569 49.9678 189.489 50.2102 189.33 50.4205C189.172 50.6288 188.954 50.7917 188.673 50.9091C188.393 51.0265 188.071 51.0852 187.707 51.0852C187.173 51.0852 186.743 50.9735 186.418 50.75C186.092 50.5246 185.898 50.2112 185.835 49.8097L186.838 49.7131C186.884 49.91 186.98 50.0587 187.128 50.1591C187.276 50.2595 187.468 50.3097 187.705 50.3097C187.949 50.3097 188.145 50.2595 188.293 50.1591C188.442 50.0587 188.517 49.9347 188.517 49.7869C188.517 49.6619 188.469 49.5587 188.372 49.4773C188.277 49.3958 188.13 49.3333 187.929 49.2898L187.185 49.1335C186.766 49.0464 186.456 48.8996 186.256 48.6932C186.055 48.4848 185.955 48.2216 185.957 47.9034C185.955 47.6345 186.028 47.4015 186.176 47.2045C186.326 47.0057 186.533 46.8523 186.798 46.7443C187.065 46.6345 187.373 46.5795 187.722 46.5795C188.233 46.5795 188.635 46.6884 188.929 46.9062C189.224 47.1241 189.407 47.4186 189.477 47.7898ZM192.403 52.6364V46.6364H193.415V47.358H193.474C193.527 47.2519 193.602 47.1392 193.699 47.0199C193.795 46.8987 193.926 46.7955 194.091 46.7102C194.256 46.6231 194.466 46.5795 194.722 46.5795C195.059 46.5795 195.363 46.6657 195.634 46.8381C195.906 47.0085 196.122 47.2614 196.281 47.5966C196.442 47.9299 196.523 48.339 196.523 48.8239C196.523 49.303 196.444 49.7102 196.287 50.0455C196.13 50.3807 195.916 50.6364 195.645 50.8125C195.374 50.9886 195.067 51.0767 194.724 51.0767C194.474 51.0767 194.267 51.035 194.102 50.9517C193.938 50.8684 193.805 50.768 193.705 50.6506C193.606 50.5312 193.529 50.4186 193.474 50.3125H193.432V52.6364H192.403ZM193.412 48.8182C193.412 49.1004 193.452 49.3475 193.531 49.5597C193.613 49.7718 193.729 49.9375 193.881 50.0568C194.034 50.1742 194.22 50.233 194.438 50.233C194.665 50.233 194.855 50.1723 195.009 50.0511C195.162 49.928 195.277 49.7604 195.355 49.5483C195.435 49.3343 195.474 49.0909 195.474 48.8182C195.474 48.5473 195.436 48.3068 195.358 48.0966C195.28 47.8864 195.165 47.7216 195.011 47.6023C194.858 47.483 194.667 47.4233 194.438 47.4233C194.218 47.4233 194.031 47.4811 193.878 47.5966C193.724 47.7121 193.608 47.8741 193.528 48.0824C193.451 48.2907 193.412 48.536 193.412 48.8182ZM197.403 51V46.6364H198.401V47.3636H198.446C198.526 47.1117 198.662 46.9176 198.855 46.7812C199.05 46.643 199.273 46.5739 199.523 46.5739C199.58 46.5739 199.643 46.5767 199.713 46.5824C199.785 46.5862 199.845 46.5928 199.892 46.6023V47.5483C199.848 47.5331 199.779 47.5199 199.685 47.5085C199.592 47.4953 199.502 47.4886 199.415 47.4886C199.227 47.4886 199.059 47.5294 198.909 47.6108C198.761 47.6903 198.645 47.8011 198.56 47.9432C198.474 48.0852 198.432 48.2491 198.432 48.4347V51H197.403ZM202.299 51.0852C201.873 51.0852 201.504 50.9915 201.191 50.804C200.879 50.6165 200.636 50.3542 200.464 50.017C200.293 49.6799 200.208 49.286 200.208 48.8352C200.208 48.3845 200.293 47.9896 200.464 47.6506C200.636 47.3116 200.879 47.0483 201.191 46.8608C201.504 46.6733 201.873 46.5795 202.299 46.5795C202.725 46.5795 203.094 46.6733 203.407 46.8608C203.719 47.0483 203.961 47.3116 204.131 47.6506C204.304 47.9896 204.39 48.3845 204.39 48.8352C204.39 49.286 204.304 49.6799 204.131 50.017C203.961 50.3542 203.719 50.6165 203.407 50.804C203.094 50.9915 202.725 51.0852 202.299 51.0852ZM202.305 50.2614C202.536 50.2614 202.729 50.1979 202.884 50.071C203.04 49.9422 203.155 49.7699 203.231 49.554C203.308 49.3381 203.347 49.0975 203.347 48.8324C203.347 48.5653 203.308 48.3239 203.231 48.108C203.155 47.8902 203.04 47.7169 202.884 47.5881C202.729 47.4593 202.536 47.3949 202.305 47.3949C202.068 47.3949 201.871 47.4593 201.714 47.5881C201.558 47.7169 201.442 47.8902 201.364 48.108C201.289 48.3239 201.251 48.5653 201.251 48.8324C201.251 49.0975 201.289 49.3381 201.364 49.554C201.442 49.7699 201.558 49.9422 201.714 50.071C201.871 50.1979 202.068 50.2614 202.305 50.2614ZM207.473 46.6364V47.4318H204.893V46.6364H207.473ZM205.538 51V46.2244C205.538 45.9309 205.599 45.6866 205.72 45.4915C205.843 45.2964 206.008 45.1506 206.214 45.054C206.421 44.9574 206.65 44.9091 206.902 44.9091C207.08 44.9091 207.238 44.9233 207.376 44.9517C207.515 44.9801 207.617 45.0057 207.683 45.0284L207.479 45.8239C207.435 45.8106 207.38 45.7973 207.314 45.7841C207.248 45.7689 207.174 45.7614 207.092 45.7614C206.901 45.7614 206.766 45.8078 206.686 45.9006C206.608 45.9915 206.57 46.1222 206.57 46.2926V51H205.538ZM210.046 51.0852C209.609 51.0852 209.231 50.9943 208.913 50.8125C208.596 50.6288 208.353 50.3693 208.183 50.0341C208.012 49.697 207.927 49.3002 207.927 48.8438C207.927 48.3949 208.012 48.0009 208.183 47.6619C208.355 47.321 208.595 47.0559 208.904 46.8665C209.213 46.6752 209.576 46.5795 209.992 46.5795C210.261 46.5795 210.515 46.6231 210.754 46.7102C210.994 46.7955 211.206 46.928 211.39 47.108C211.576 47.2879 211.721 47.517 211.827 47.7955C211.933 48.072 211.987 48.4015 211.987 48.7841V49.0994H208.41V48.4062H211.001C210.999 48.2093 210.956 48.0341 210.873 47.8807C210.79 47.7254 210.673 47.6032 210.523 47.5142C210.376 47.4252 210.203 47.3807 210.006 47.3807C209.796 47.3807 209.612 47.4318 209.452 47.5341C209.293 47.6345 209.169 47.767 209.08 47.9318C208.993 48.0947 208.949 48.2737 208.947 48.4688V49.0739C208.947 49.3277 208.993 49.5455 209.086 49.7273C209.179 49.9072 209.308 50.0455 209.475 50.142C209.642 50.2367 209.837 50.2841 210.06 50.2841C210.21 50.2841 210.345 50.2633 210.467 50.2216C210.588 50.178 210.693 50.1146 210.782 50.0312C210.871 49.9479 210.938 49.8447 210.984 49.7216L211.944 49.8295C211.883 50.0833 211.768 50.3049 211.597 50.4943C211.429 50.6818 211.213 50.8277 210.95 50.9318C210.686 51.0341 210.385 51.0852 210.046 51.0852ZM216.305 47.7898L215.368 47.892C215.341 47.7973 215.295 47.7083 215.229 47.625C215.164 47.5417 215.077 47.4744 214.967 47.4233C214.857 47.3722 214.723 47.3466 214.564 47.3466C214.35 47.3466 214.17 47.393 214.024 47.4858C213.88 47.5786 213.809 47.6989 213.811 47.8466C213.809 47.9735 213.856 48.0767 213.95 48.1562C214.047 48.2358 214.206 48.3011 214.428 48.3523L215.172 48.5114C215.585 48.6004 215.892 48.7415 216.092 48.9347C216.295 49.1278 216.397 49.3807 216.399 49.6932C216.397 49.9678 216.317 50.2102 216.158 50.4205C216 50.6288 215.782 50.7917 215.501 50.9091C215.221 51.0265 214.899 51.0852 214.536 51.0852C214.001 51.0852 213.571 50.9735 213.246 50.75C212.92 50.5246 212.726 50.2112 212.663 49.8097L213.666 49.7131C213.712 49.91 213.808 50.0587 213.956 50.1591C214.104 50.2595 214.296 50.3097 214.533 50.3097C214.777 50.3097 214.973 50.2595 215.121 50.1591C215.27 50.0587 215.345 49.9347 215.345 49.7869C215.345 49.6619 215.297 49.5587 215.2 49.4773C215.106 49.3958 214.958 49.3333 214.757 49.2898L214.013 49.1335C213.594 49.0464 213.285 48.8996 213.084 48.6932C212.883 48.4848 212.784 48.2216 212.786 47.9034C212.784 47.6345 212.857 47.4015 213.004 47.2045C213.154 47.0057 213.361 46.8523 213.626 46.7443C213.893 46.6345 214.201 46.5795 214.55 46.5795C215.061 46.5795 215.464 46.6884 215.757 46.9062C216.053 47.1241 216.235 47.4186 216.305 47.7898ZM220.696 47.7898L219.759 47.892C219.732 47.7973 219.686 47.7083 219.619 47.625C219.555 47.5417 219.468 47.4744 219.358 47.4233C219.248 47.3722 219.114 47.3466 218.955 47.3466C218.741 47.3466 218.561 47.393 218.415 47.4858C218.271 47.5786 218.2 47.6989 218.202 47.8466C218.2 47.9735 218.246 48.0767 218.341 48.1562C218.438 48.2358 218.597 48.3011 218.818 48.3523L219.562 48.5114C219.975 48.6004 220.282 48.7415 220.483 48.9347C220.686 49.1278 220.788 49.3807 220.79 49.6932C220.788 49.9678 220.707 50.2102 220.548 50.4205C220.391 50.6288 220.172 50.7917 219.892 50.9091C219.612 51.0265 219.29 51.0852 218.926 51.0852C218.392 51.0852 217.962 50.9735 217.636 50.75C217.311 50.5246 217.116 50.2112 217.054 49.8097L218.057 49.7131C218.102 49.91 218.199 50.0587 218.347 50.1591C218.494 50.2595 218.687 50.3097 218.923 50.3097C219.168 50.3097 219.364 50.2595 219.511 50.1591C219.661 50.0587 219.736 49.9347 219.736 49.7869C219.736 49.6619 219.688 49.5587 219.591 49.4773C219.496 49.3958 219.348 49.3333 219.148 49.2898L218.403 49.1335C217.985 49.0464 217.675 48.8996 217.474 48.6932C217.274 48.4848 217.174 48.2216 217.176 47.9034C217.174 47.6345 217.247 47.4015 217.395 47.2045C217.545 47.0057 217.752 46.8523 218.017 46.7443C218.284 46.6345 218.592 46.5795 218.94 46.5795C219.452 46.5795 219.854 46.6884 220.148 46.9062C220.443 47.1241 220.626 47.4186 220.696 47.7898ZM223.57 51.0852C223.132 51.0852 222.754 50.9943 222.436 50.8125C222.12 50.6288 221.876 50.3693 221.706 50.0341C221.536 49.697 221.45 49.3002 221.45 48.8438C221.45 48.3949 221.536 48.0009 221.706 47.6619C221.878 47.321 222.119 47.0559 222.428 46.8665C222.736 46.6752 223.099 46.5795 223.516 46.5795C223.785 46.5795 224.038 46.6231 224.277 46.7102C224.518 46.7955 224.73 46.928 224.913 47.108C225.099 47.2879 225.245 47.517 225.351 47.7955C225.457 48.072 225.51 48.4015 225.51 48.7841V49.0994H221.933V48.4062H224.524C224.522 48.2093 224.48 48.0341 224.396 47.8807C224.313 47.7254 224.196 47.6032 224.047 47.5142C223.899 47.4252 223.727 47.3807 223.53 47.3807C223.32 47.3807 223.135 47.4318 222.976 47.5341C222.817 47.6345 222.693 47.767 222.604 47.9318C222.517 48.0947 222.472 48.2737 222.47 48.4688V49.0739C222.47 49.3277 222.517 49.5455 222.609 49.7273C222.702 49.9072 222.832 50.0455 222.999 50.142C223.165 50.2367 223.36 50.2841 223.584 50.2841C223.733 50.2841 223.869 50.2633 223.99 50.2216C224.111 50.178 224.216 50.1146 224.305 50.0312C224.394 49.9479 224.462 49.8447 224.507 49.7216L225.467 49.8295C225.407 50.0833 225.291 50.3049 225.121 50.4943C224.952 50.6818 224.736 50.8277 224.473 50.9318C224.21 51.0341 223.909 51.0852 223.57 51.0852ZM229.161 49.1648V46.6364H230.19V51H229.192V50.2244H229.147C229.049 50.4687 228.887 50.6686 228.661 50.8239C228.438 50.9792 228.162 51.0568 227.835 51.0568C227.549 51.0568 227.296 50.9934 227.076 50.8665C226.858 50.7377 226.688 50.5511 226.565 50.3068C226.442 50.0606 226.38 49.7633 226.38 49.4148V46.6364H227.408V49.2557C227.408 49.5322 227.484 49.7519 227.636 49.9148C227.787 50.0777 227.986 50.1591 228.232 50.1591C228.384 50.1591 228.531 50.1222 228.673 50.0483C228.815 49.9744 228.931 49.8646 229.022 49.7188C229.115 49.571 229.161 49.3864 229.161 49.1648ZM231.247 51V46.6364H232.244V47.3636H232.29C232.369 47.1117 232.506 46.9176 232.699 46.7812C232.894 46.643 233.116 46.5739 233.366 46.5739C233.423 46.5739 233.487 46.5767 233.557 46.5824C233.629 46.5862 233.688 46.5928 233.736 46.6023V47.5483C233.692 47.5331 233.623 47.5199 233.528 47.5085C233.436 47.4953 233.346 47.4886 233.259 47.4886C233.071 47.4886 232.902 47.5294 232.753 47.6108C232.605 47.6903 232.489 47.8011 232.403 47.9432C232.318 48.0852 232.276 48.2491 232.276 48.4347V51H231.247ZM237.868 47.7898L236.93 47.892C236.904 47.7973 236.857 47.7083 236.791 47.625C236.727 47.5417 236.64 47.4744 236.53 47.4233C236.42 47.3722 236.286 47.3466 236.126 47.3466C235.912 47.3466 235.732 47.393 235.587 47.4858C235.443 47.5786 235.372 47.6989 235.374 47.8466C235.372 47.9735 235.418 48.0767 235.513 48.1562C235.609 48.2358 235.768 48.3011 235.99 48.3523L236.734 48.5114C237.147 48.6004 237.454 48.7415 237.655 48.9347C237.857 49.1278 237.96 49.3807 237.962 49.6932C237.96 49.9678 237.879 50.2102 237.72 50.4205C237.563 50.6288 237.344 50.7917 237.064 50.9091C236.784 51.0265 236.462 51.0852 236.098 51.0852C235.564 51.0852 235.134 50.9735 234.808 50.75C234.482 50.5246 234.288 50.2112 234.226 49.8097L235.229 49.7131C235.274 49.91 235.371 50.0587 235.518 50.1591C235.666 50.2595 235.858 50.3097 236.095 50.3097C236.339 50.3097 236.536 50.2595 236.683 50.1591C236.833 50.0587 236.908 49.9347 236.908 49.7869C236.908 49.6619 236.859 49.5587 236.763 49.4773C236.668 49.3958 236.52 49.3333 236.32 49.2898L235.575 49.1335C235.157 49.0464 234.847 48.8996 234.646 48.6932C234.446 48.4848 234.346 48.2216 234.348 47.9034C234.346 47.6345 234.419 47.4015 234.567 47.2045C234.716 47.0057 234.924 46.8523 235.189 46.7443C235.456 46.6345 235.764 46.5795 236.112 46.5795C236.624 46.5795 237.026 46.6884 237.32 46.9062C237.615 47.1241 237.798 47.4186 237.868 47.7898Z" fill="#878787"/>
<line x1="10" y1="49" x2="122" y2="49" stroke="#0BA6FE" stroke-width="2"/>
</g>
<defs>
<clipPath id="clip0_771_308">
<rect width="250" height="56" fill="white"/>
</clipPath>
</defs>
</svg>
